<svg xmlns="http://www.w3.org/2000/svg" xmlns:xlink="http://www.w3.org/1999/xlink" viewBox="0 0 14 17.5" version="1.1" x="0px" y="0px"><title>Delete 5</title><desc>Created with Sketch.</desc><g stroke="none" stroke-width="1" fill="none" fill-rule="evenodd"><g fill="#000000" fill-rule="nonzero"><path d="M8.5,11 C8.2235,11 8,10.7765 8,10.5 L8,5 C8,4.7235 8.2235,4.5 8.5,4.5 C8.7765,4.5 9,4.7235 9,5 L9,10.5 C9,10.7765 8.7765,11 8.5,11 Z M5.5,11 C5.2235,11 5,10.7765 5,10.5 L5,5 C5,4.7235 5.2235,4.5 5.5,4.5 C5.7765,4.5 6,4.7235 6,5 L6,10.5 C6,10.7765 5.7765,11 5.5,11 Z M13.5,2.5 L11,2.5 L11,1.5 C11,0.673 10.3325,0 9.5115,0 L4.5,0 C3.673,0 3,0.673 3,1.5 L3,2.5 L0.5,2.5 C0.2235,2.5 0,2.7235 0,3 C0,3.2765 0.2235,3.5 0.5,3.5 L13.5,3.5 C13.7765,3.5 14,3.2765 14,3 C14,2.7235 13.7765,2.5 13.5,2.5 Z M4,1.5 C4,1.2245 4.2245,1 4.5,1 L9.5115,1 C9.7855,1 10,1.2195 10,1.5 L10,2.5 L4,2.5 L4,1.5 Z M10.502,14 L3.501,14 C2.674,14 2.001,13.327 2.001,12.5 L2.001,4.9925 C2.001,4.7165 2.225,4.4925 2.501,4.4925 C2.777,4.4925 3.001,4.7165 3.001,4.9925 L3.001,12.5 C3.001,12.776 3.2255,13 3.501,13 L10.502,13 C10.778,13 11.002,12.776 11.002,12.5 L11.002,5.013 C11.002,4.737 11.2255,4.513 11.502,4.513 C11.7785,4.513 12.002,4.737 12.002,5.013 L12.002,12.5 C12.002,13.327 11.329,14 10.502,14 Z"/></g></g><text x="0" y="29" fill="#000000" font-size="5px" font-weight="bold" font-family="'Helvetica Neue', Helvetica, Arial-Unicode, Arial, Sans-serif">Created by iconfun</text><text x="0" y="34" fill="#000000" font-size="5px" font-weight="bold" font-family="'Helvetica Neue', Helvetica, Arial-Unicode, Arial, Sans-serif">from the Noun Project</text></svg>